<svg width="45" height="59" viewBox="0 0 45 59" fill="none" xmlns="http://www.w3.org/2000/svg">
<path d="M3.32879 26.5706C3.46428 26.882 3.76703 27.1772 4.05601 27.1347C4.51436 27.0649 5.13891 26.3351 5.78674 25.7609C8.10496 23.7542 11.0424 24.6489 11.8342 26.6394C12.6461 28.6682 10.9144 30.4909 11.0932 31.8374C11.1685 32.4236 11.6283 32.898 12.2345 33.015C12.8407 33.132 13.4573 32.8653 13.765 32.353C14.7336 30.7648 12.1476 27.626 13.9164 24.9966C14.8758 23.6005 16.6365 22.9129 18.3454 23.267C20.3878 23.7807 21.735 25.6375 21.521 27.6442C21.4152 28.4701 21.0161 29.3182 21.1579 29.7782C21.2953 30.0869 21.6296 30.2718 21.9783 30.2321C22.4168 30.1528 22.7717 29.8455 22.8971 29.4365C23.2623 28.3316 22.3583 26.6535 23.1787 25.025C24.0282 23.5369 25.8526 22.8201 27.5526 23.3064C31.6344 24.3173 32.2028 29.5275 33.7568 30.0137C34.0309 30.0987 34.1241 30.0319 34.1802 29.9905C34.5987 29.4983 34.7945 28.8671 34.7243 28.2366C34.647 27.3045 33.543 24.7995 35.5341 23.6663C36.961 22.8636 38.444 23.6896 41.1063 24.3739C41.0216 24.1121 40.8342 23.7138 40.6744 23.3549C40.3326 22.6244 39.8645 21.9539 39.2898 21.3716C37.4775 19.4226 35.2785 17.8362 32.82 16.7042C32.4645 17.1908 32.0616 17.644 31.6164 18.0578C32.0728 18.216 32.3561 18.6525 32.3015 19.1133C32.2469 19.574 31.8686 19.9389 31.3867 19.9957C25.9666 20.6634 20.4782 20.6501 15.0617 19.9563C14.6885 19.8978 14.3763 19.6536 14.2427 19.3156C14.1091 18.9776 14.1745 18.5973 14.4142 18.3178C14.6539 18.0384 15.0315 17.9023 15.4047 17.9608C16.2611 18.0922 15.5656 18.1367 14.1874 16.3373C10.8191 17.6514 6.56583 20.0281 4.47837 22.8829C3.8189 23.7805 2.87573 25.5607 3.32879 26.5706Z" fill="#DB3559"/>
<path d="M35.1285 1.23785C32.3763 -0.138993 29.9321 -0.367457 27.8658 0.553474C25.7995 1.4744 24.2615 3.48508 23.2558 6.50464C23.2315 6.45814 23.1997 6.4167 23.1796 6.36918C22.9366 5.80336 22.5334 5.31332 22.0152 4.95392C20.9997 4.23533 19.697 3.99722 18.4754 4.30695C17.686 4.53392 16.9617 4.93095 16.3583 5.46746C13.8019 7.66415 13.4336 11.4025 15.4681 14.5494C16.6486 16.3524 18.4461 17.7096 20.5555 18.3908C22.8187 18.4826 25.0853 18.4606 27.3461 18.3251C29.102 17.6771 30.5685 16.4678 31.4956 14.9032C32.2309 13.6113 32.4763 12.1164 32.19 10.6716C32.0548 9.88781 31.7328 9.1442 31.2489 8.49814C30.4784 7.5422 29.2989 6.96734 28.0362 6.93226C27.4066 6.90481 26.7819 7.05078 26.2367 7.35279C25.8958 7.54888 25.5015 7.64355 25.1041 7.62472C25.9191 4.86597 27.1471 3.106 28.7656 2.38523C30.2042 1.74431 32.0153 1.96065 34.1536 3.02917C34.491 3.21953 34.911 3.21629 35.2451 3.02074C35.5793 2.82519 35.7729 2.46933 35.7485 2.0958C35.7241 1.72226 35.4856 1.39218 35.1285 1.23785ZM19.1963 7.89766C18.9724 7.89769 18.7583 7.98581 18.6046 8.14129C18.3408 8.41397 18.1437 8.73923 18.0277 9.09356C17.823 9.61669 17.2131 9.88237 16.6653 9.68696C16.1175 9.49155 15.8393 8.90906 16.0439 8.38593C16.2654 7.74646 16.6381 7.16429 17.1332 6.68458C17.7566 6.0869 18.6338 5.79711 19.5107 5.89911C19.8904 5.94705 20.2134 6.18713 20.3553 6.5269C20.4971 6.86667 20.4357 7.25312 20.1947 7.53741C19.9537 7.82169 19.5706 7.95947 19.1931 7.89766H19.1963Z" fill="#DB3559"/>
<path d="M29.4388 40.7754C29.3403 40.6744 29.245 40.5733 29.1529 40.4722C27.8718 42.7823 25.3581 44.2265 22.6208 44.2252C19.8836 44.224 17.3714 42.7774 16.0926 40.4661C16.0218 40.5766 15.9372 40.6784 15.8406 40.7694C12.9053 43.7212 7.88352 43.8749 4.13097 42.5162C5.72556 47.8996 8.2771 52.9812 11.6742 57.5392C12.3908 57.7535 15.1346 58.3772 22.6376 58.3772C30.0972 58.3772 32.8515 57.7616 33.6031 57.5392C36.9983 52.9821 39.5488 47.9019 41.1431 42.5203C37.3895 43.8799 32.3688 43.7242 29.4388 40.7754ZM15.8152 56.1856C15.5817 56.3345 15.2957 56.3886 15.0204 56.336C14.745 56.2835 14.5028 56.1287 14.347 55.9056C12.1759 52.7961 10.0779 46.8186 9.98898 46.5659C9.86947 46.2228 9.95071 45.8449 10.2021 45.5745C10.4535 45.3041 10.8368 45.1823 11.2077 45.255C11.5786 45.3277 11.8807 45.5839 12.0002 45.927C12.0203 45.9866 14.0972 51.9004 16.1106 54.7835C16.2662 55.0068 16.3225 55.28 16.2671 55.543C16.2118 55.806 16.0492 56.0372 15.8152 56.1856ZM20.5205 54.3336C20.5205 54.892 20.0466 55.3445 19.4619 55.3445C18.8773 55.3445 18.4034 54.892 18.4034 54.3336V47.2573C18.4034 46.699 18.8773 46.2464 19.4619 46.2464C20.0466 46.2464 20.5205 46.699 20.5205 47.2573V54.3336ZM26.8718 54.3336C26.8718 54.892 26.3978 55.3445 25.8132 55.3445C25.2286 55.3445 24.7547 54.892 24.7547 54.3336V47.2573C24.7547 46.699 25.2286 46.2464 25.8132 46.2464C26.3978 46.2464 26.8718 46.699 26.8718 47.2573V54.3336ZM35.2862 46.5659C35.1973 46.8186 33.0992 52.7961 30.9281 55.9056C30.7182 56.2061 30.3564 56.3768 29.979 56.3535C29.6016 56.3301 29.2658 56.1162 29.0983 55.7924C28.9307 55.4686 28.9568 55.084 29.1667 54.7835C31.178 51.8974 33.2569 45.9887 33.2771 45.927C33.4618 45.3966 34.0618 45.1097 34.6172 45.2861C35.1726 45.4625 35.473 46.0355 35.2883 46.5659H35.2862Z" fill="#DB3559"/>
<path d="M44.6249 32.7443C44.03 30.4751 43.0487 28.3147 41.7202 26.3494C41.35 26.4284 40.9654 26.4221 40.5982 26.3312C36.5683 25.3021 36.0697 24.4944 36.6487 27.0752C36.7323 27.408 36.7928 27.7457 36.8297 28.0861C36.9637 29.3883 36.4661 30.6773 35.479 31.5848C34.2617 32.4946 32.279 32.2682 30.9273 29.9876C29.91 28.2852 29.0071 25.756 27.0106 25.2616C26.2914 25.0458 25.5091 25.3069 25.0873 25.9036C24.6638 26.7527 25.4196 28.5238 24.92 30.0361C24.554 31.2117 23.5023 32.0746 22.2302 32.2429C20.8537 32.4006 19.5528 31.606 19.1255 30.3465C18.9806 29.3592 19.081 28.3532 19.4187 27.4098C19.5051 26.4227 18.8519 25.5141 17.8563 25.2364C17.0186 25.0866 16.1678 25.4267 15.6916 26.1017C14.5367 27.8202 17.1683 30.7933 15.5942 33.3741C14.8297 34.6359 13.3069 35.2904 11.811 35.0002C10.3151 34.71 9.18039 33.5399 8.99202 32.0933C8.73691 30.1544 10.2845 28.4258 9.85686 27.3562C9.67199 26.9764 9.29586 26.7137 8.86076 26.6607C7.10992 26.4262 6.45362 28.816 4.39475 29.1263C3.63496 29.2339 2.86389 29.019 2.284 28.538C-0.218411 33.2771 -0.770973 38.191 4.30795 40.3999C7.54499 41.7969 12.2407 41.7464 14.5007 39.1666C14.9488 38.6611 15.6288 38.3989 16.3188 38.4653C17.0088 38.5318 17.6203 38.9184 17.9537 39.4992C18.8188 41.2048 20.6543 42.264 22.6378 42.2023C24.6207 42.2644 26.4561 41.206 27.3219 39.5012C27.6553 38.9211 28.2661 38.5349 28.9555 38.4682C29.6448 38.4016 30.3244 38.6631 30.7727 39.1676C33.0592 41.7676 37.7592 41.7899 40.9697 40.4019C44.3105 38.9492 45.3775 36.1895 44.6249 32.7443Z" fill="#DB3559"/>
</svg>
