<svg width="87" height="85" viewBox="0 0 87 85" fill="none" xmlns="http://www.w3.org/2000/svg">
<path d="M26.9037 38.8251C26.0384 38.2446 24.7661 37.075 23.9694 36.2018C23.4689 36.9776 21.779 38.9759 19.8435 41.1409C19.0384 40.421 18.0798 39.6928 17.1071 39.0164C18.1148 37.8892 19.0567 36.7996 19.8066 35.9248C22.8786 32.2005 19.6813 28.827 17.2536 28.8779C18.3707 30.6171 18.0947 32.3662 16.8321 34.1026C16.388 34.6714 15.4142 35.7967 14.2126 37.1047C12.9094 36.2938 11.7711 35.6946 11.1581 35.372C10.9963 35.517 10.5541 36.1197 10.4261 36.2628C11.039 36.5855 11.9995 37.3476 13.1051 38.2715C11.1319 40.3706 8.87922 42.6383 7.5204 43.8702C8.70023 44.603 9.7022 45.4988 10.8644 46.8275C11.5162 45.4143 13.5739 43.0045 15.6995 40.5909C16.5621 41.4265 17.4247 42.2621 18.1301 43.0214C15.7749 45.5838 13.4103 47.9768 12.5576 48.5344C13.503 49.0254 15.3901 50.5515 15.9515 51.472C16.7567 50.0671 25.2662 39.9365 26.9037 38.8251Z" fill="#DB3559"/>
<path d="M29.0043 46.1896C29.2038 44.6924 28.3511 43.6289 27.0415 43.1993C24.8438 42.4587 21.9717 43.5491 20.2269 47.2637C18.4718 51 20.2263 53.8128 22.1162 54.7006C25.8308 56.4455 28.4064 53.3332 29.3781 50.9259C30.3485 48.465 29.0106 46.007 26.7471 46.0839C27.9178 46.9785 27.7325 48.615 26.8855 50.418C26.0679 52.1022 24.6753 53.5428 23.5125 52.97C22.057 52.2864 22.1134 50.6423 22.9435 48.5928C24.22 45.4802 26.9131 44.0936 29.0043 46.1896Z" fill="#DB3559"/>
<path d="M36.5274 45.561C36.9014 45.1043 38.1109 44 39.3528 43.2968C37.7518 43.3036 36.9422 43.2927 35.7922 43.1555C36.5236 40.4666 37.2225 38.1394 37.7046 37.3135C36.3471 38.3105 34.6778 39.1631 33.2306 39.7953C33.1706 40.4953 32.961 41.5306 32.6855 42.7478C32.4983 42.7054 32.3057 42.6864 32.0897 42.6622C31.573 42.9882 30.64 43.9582 29.8468 44.4185C30.5755 44.4603 31.3873 44.5702 32.2044 44.6567C31.4085 47.8477 30.3526 51.6443 29.8719 54.0946C29.0696 58.2931 33.4606 59.1144 35.215 57.1245C33.8618 57.0152 32.9712 55.731 33.2272 54.1648C33.5012 52.6274 34.3359 48.83 35.2558 45.1995C35.7708 45.316 36.2103 45.4401 36.5274 45.561Z" fill="#DB3559"/>
<path d="M50.3712 48.7196C52.5824 47.9413 53.2637 45.432 52.4054 43.9617C51.4503 42.3364 49.0545 42.3904 47.2101 43.185C44.2438 44.4198 42.1089 48.3676 43.2537 53.8977C45.0239 62.5368 53.0017 62.9327 56.7145 58.0372C49.9898 60.4106 47.4969 55.7442 46.8023 53.1315C45.9487 49.9606 45.6695 45.9483 47.9172 45.0915C49.6576 44.41 51.3081 46.608 50.3712 48.7196Z" fill="#DB3559"/>
<path d="M61.0044 44.5643C60.1503 45.0676 58.8743 45.6239 57.8239 45.9771C58.356 46.8971 59.0149 48.4687 59.6739 50.0403C60.0254 51.3271 59.951 52.5377 59.2126 52.8858C57.843 53.5876 56.3378 51.7566 55.7775 50.3514C53.9118 45.7714 57.3653 44.6847 58.4309 45.2674C58.0907 43.7663 56.1128 42.9529 54.4047 43.9594C52.709 44.9343 50.9276 47.3341 52.7692 51.5582C54.7641 56.1342 57.6253 56.0912 58.9233 55.5253C60.3314 54.9115 60.8672 53.9186 60.98 52.796C61.2925 53.3928 61.5791 53.87 61.8934 54.2305C63.776 56.4468 66.1751 54.5631 66.8711 52.9768C63.7685 53.7272 61.5872 46.5619 61.0044 44.5643Z" fill="#DB3559"/>
<path d="M67.042 35.6652C66.319 36.5637 65.4803 37.0921 64.4927 37.7417C65.81 39.207 67.0679 41.5873 65.7893 43.2478C68.9875 47.1742 74.7805 48.2439 77.5302 43.3732C74.1879 44.3621 70.6487 44.2733 68.4433 41.9838C68.8549 40.627 68.5673 37.7658 67.042 35.6652ZM53.1694 38.2049C54.6408 37.1612 55.99 37.1456 57.1813 38.3421C58.2023 39.3676 65.6506 48.7778 67.0318 51.1196C67.6852 50.4017 68.7969 49.3723 69.8706 48.7144C68.2907 47.6488 62.4272 39.4241 59.59 36.4729C56.9987 33.7857 53.5577 35.9076 53.1694 38.2049Z" fill="#DB3559"/>
<path d="M74.8431 37.3416C76.1499 36.6909 77.7538 33.4344 75.1088 31.2368C72.3475 28.9544 70.2851 29.8263 68.9128 31.7068C67.6113 33.4904 67.0359 36.8438 71.1266 39.8289C76.1866 43.5214 82.3338 39.3317 79.7732 34.0464C79.2021 36.9869 76.2374 39.3395 72.8992 36.9927C71.0097 35.6733 69.0753 33.8457 69.9843 32.5184C70.8033 31.274 72.4533 32.2701 73.3676 33.175C74.3155 34.0747 75.1507 35.9023 74.8431 37.3416Z" fill="#DB3559"/>
</svg>
