<svg width="90" height="90" viewBox="0 0 90 90" fill="none" xmlns="http://www.w3.org/2000/svg">
<path d="M71.8259 43.3909C71.6432 43.2567 71.4478 43.1452 71.2431 43.0584C70.8754 40.281 69.2573 31.5088 63.0216 25.0802C63.1332 23.4906 62.939 21.8928 62.4517 20.3931C61.9644 18.8934 61.1952 17.5262 60.1955 16.3825C60.1371 16.3163 60.0973 16.2326 60.0811 16.1417C60.0648 16.0508 60.0726 15.9566 60.1037 15.8706C60.4163 15.0058 60.6583 14.1116 60.827 13.1988C60.8791 12.9144 60.8302 12.6188 60.6907 12.3735C60.5512 12.1282 60.3318 11.9523 60.0784 11.8825C59.8326 11.8422 59.5822 11.9068 59.3775 12.0633C59.1729 12.2199 59.0292 12.4567 58.9754 12.7263C58.3612 14.7535 57.5733 16.7106 56.6226 18.5706C56.6096 18.5967 56.6024 18.6259 56.6019 18.6557C56.6014 18.6855 56.6075 18.7149 56.6196 18.7415C56.6317 18.7681 56.6495 18.791 56.6714 18.8081C56.6934 18.8253 56.7188 18.8362 56.7454 18.8399C56.9736 18.8727 57.1834 18.9966 57.3356 19.1884C57.4878 19.3802 57.5721 19.627 57.5728 19.8827C57.5735 20.1384 57.4905 20.3857 57.3394 20.5786C57.1882 20.7714 56.9791 20.8967 56.7511 20.931C56.5789 20.954 56.4056 20.9648 56.2321 20.9634C55.4539 20.9914 54.6824 20.7942 53.9933 20.3912C53.3043 19.9881 52.7214 19.393 52.3018 18.6641C52.1803 18.4561 52.126 18.2085 52.1477 17.9617C52.1694 17.7149 52.2659 17.4836 52.4214 17.3057C52.5242 17.1946 52.6484 17.1108 52.7846 17.0607C52.9207 17.0106 53.0654 16.9954 53.2076 17.0163C53.3498 17.0372 53.4859 17.0937 53.6056 17.1815C53.7254 17.2692 53.8257 17.386 53.899 17.523C54.0034 17.7174 54.13 17.8961 54.2755 18.0545C55.0944 17.6418 55.9948 16.0204 56.6011 14.2773C56.6235 14.2117 56.6341 14.1418 56.6321 14.0716C56.6301 14.0015 56.6157 13.9324 56.5897 13.8684C56.5636 13.8045 56.5264 13.7469 56.4803 13.6989C56.4341 13.6509 56.3799 13.6136 56.3207 13.589C54.2175 12.7468 51.9222 12.7036 49.7945 13.4663C47.6668 14.229 45.8269 15.7544 44.5631 17.8035H44.4966C22.2786 17.8035 18.3438 38.5288 17.7502 43.0633C17.3325 43.2287 16.962 43.5149 16.6769 43.8923C16.3918 44.2698 16.2025 44.7248 16.1283 45.2106C15.9467 46.0219 15.9581 46.8716 16.1612 47.6765L21.9635 71.3359C22.5692 73.7898 23.8827 75.9551 25.7025 77.4998C27.5222 79.0444 29.7478 79.8832 32.0378 79.8873H56.9555C59.2455 79.8832 61.4711 79.0444 63.2908 77.4998C65.1106 75.9551 66.4241 73.7898 67.0298 71.3359L73.0137 46.9375C73.1796 46.2828 73.154 45.5864 72.9405 44.9489C72.727 44.3115 72.3367 43.7659 71.8259 43.3909ZM29.8818 73.1191C29.8167 73.1344 29.7503 73.1421 29.6838 73.1423C29.4663 73.142 29.2554 73.0588 29.0866 72.9064C28.9177 72.7541 28.801 72.542 28.7561 72.3055L24.9978 52.5934C24.9456 52.3198 24.9934 52.0343 25.1306 51.7998C25.2679 51.5653 25.4833 51.4009 25.7296 51.3429C25.9759 51.2849 26.2329 51.338 26.4439 51.4905C26.655 51.643 26.8029 51.8824 26.8551 52.1561L30.6134 71.8661C30.6396 72.0018 30.6414 72.1418 30.6188 72.2783C30.5962 72.4147 30.5495 72.5448 30.4816 72.6612C30.4136 72.7776 30.3257 72.878 30.2228 72.9565C30.1199 73.0351 30.004 73.0903 29.8818 73.1191ZM39.1057 74.4304C39.0899 74.4304 39.0734 74.4304 39.057 74.4304C38.8135 74.4308 38.5791 74.3271 38.4024 74.1409C38.2258 73.9546 38.1203 73.7001 38.1078 73.4298L37.101 51.4178C37.0882 51.1381 37.176 50.8642 37.345 50.6564C37.514 50.4486 37.7503 50.3239 38.0021 50.3097C38.2538 50.2955 38.5003 50.393 38.6874 50.5808C38.8744 50.7686 38.9866 51.0312 38.9994 51.3109L40.0037 73.3237C40.0164 73.6027 39.929 73.8759 39.7607 74.0834C39.5923 74.2909 39.3568 74.4157 39.1057 74.4304ZM50.8836 73.4313C50.8711 73.7015 50.7656 73.956 50.5889 74.1423C50.4123 74.3285 50.1779 74.4322 49.9344 74.4318C49.9179 74.4318 49.9015 74.4318 49.8857 74.4318C49.6343 74.4176 49.3982 74.293 49.2295 74.0855C49.0607 73.878 48.9731 73.6044 48.9858 73.3251L49.9945 51.3123C50.0008 51.1738 50.0316 51.0381 50.0852 50.9128C50.1387 50.7875 50.2139 50.6752 50.3065 50.5822C50.3992 50.4892 50.5073 50.4175 50.6249 50.3709C50.7425 50.3244 50.8672 50.3041 50.9918 50.3111C51.1165 50.3181 51.2387 50.3523 51.3514 50.4118C51.4642 50.4713 51.5653 50.5549 51.6489 50.6578C51.7326 50.7607 51.7972 50.8809 51.8391 51.0115C51.881 51.1422 51.8993 51.2807 51.893 51.4192L50.8836 73.4313ZM63.9955 52.5934L60.2372 72.3034C60.1923 72.5399 60.0756 72.752 59.9067 72.9043C59.7379 73.0566 59.527 73.1399 59.3095 73.1402C59.243 73.14 59.1766 73.1322 59.1115 73.117C58.9895 73.0882 58.8738 73.0331 58.771 72.9546C58.6683 72.8762 58.5804 72.7761 58.5125 72.6599C58.4446 72.5437 58.3979 72.4138 58.3751 72.2776C58.3524 72.1414 58.354 72.0016 58.3799 71.8661L62.1382 52.1561C62.1904 51.8824 62.3383 51.643 62.5494 51.4905C62.7604 51.338 63.0174 51.2849 63.2636 51.3429C63.5099 51.4009 63.7254 51.5653 63.8627 51.7998C63.9999 52.0343 64.0477 52.3198 63.9955 52.5934ZM67.6753 44.1876C66.54 45.2282 65.5592 46.1268 63.5209 46.1268C61.4826 46.1268 60.5017 45.2282 59.3665 44.1876C58.1281 43.052 56.7238 41.7653 54.0034 41.7653C51.2829 41.7653 49.8812 43.052 48.6435 44.1876C47.5088 45.2282 46.5292 46.1268 44.4928 46.1268C42.4565 46.1268 41.475 45.2282 40.3397 44.1876C39.1019 43.052 37.6983 41.7653 34.9785 41.7653C32.2587 41.7653 30.8564 43.052 29.6186 44.1876C28.484 45.2282 27.5044 46.1268 25.468 46.1268C23.4316 46.1268 22.4507 45.2282 21.3161 44.1876C20.7996 43.7322 20.247 43.3298 19.6651 42.9852C20.2859 38.287 23.9302 20.5309 43.5114 19.941C43.0764 21.0904 42.8197 22.3133 42.752 23.5579C42.6106 26.3169 43.3849 29.0377 44.9282 31.2049C46.4715 33.372 48.6766 34.8349 51.1257 35.3164C53.5748 35.7979 56.0978 35.2646 58.2166 33.8174C60.3355 32.3703 61.903 30.1099 62.6223 27.4645C67.5722 33.0895 68.9605 40.2424 69.3244 42.9859C68.743 43.3308 68.191 43.7338 67.6753 44.1897V44.1876Z" fill="#DB3559"/>
</svg>
