<svg width="90" height="90" viewBox="0 0 90 90" fill="none" xmlns="http://www.w3.org/2000/svg">
<path d="M22.2441 60.8378C20.3659 60.8378 18.5298 61.3948 16.9682 62.4383C15.4065 63.4817 14.1893 64.9649 13.4706 66.7001C12.7518 68.4354 12.5637 70.3448 12.9302 72.1869C13.2966 74.029 14.201 75.7211 15.5291 77.0492C16.8572 78.3773 18.5493 79.2818 20.3914 79.6482C22.2336 80.0146 24.143 79.8265 25.8782 79.1078C27.6134 78.389 29.0966 77.1718 30.1401 75.6102C31.1835 74.0485 31.7405 72.2124 31.7405 70.3342C31.7375 67.8165 30.736 65.4028 28.9558 63.6225C27.1755 61.8423 24.7618 60.8408 22.2441 60.8378ZM22.2441 73.5236C21.6133 73.5238 20.9966 73.3368 20.472 72.9864C19.9474 72.6361 19.5385 72.138 19.297 71.5552C19.0555 70.9725 18.9922 70.3312 19.1152 69.7125C19.2382 69.0937 19.5419 68.5254 19.9879 68.0793C20.4339 67.6331 21.0022 67.3293 21.6209 67.2062C22.2396 67.0831 22.8809 67.1462 23.4637 67.3876C24.0466 67.6289 24.5447 68.0377 24.8952 68.5622C25.2457 69.0867 25.4328 69.7034 25.4328 70.3342C25.4328 71.18 25.0968 71.9911 24.4989 72.5892C23.9009 73.1873 23.0898 73.5234 22.2441 73.5236Z" fill="#DB3559"/>
<path d="M64.7346 60.8378C62.8564 60.8378 61.0203 61.3948 59.4587 62.4383C57.897 63.4817 56.6798 64.9649 55.961 66.7001C55.2423 68.4354 55.0542 70.3448 55.4206 72.1869C55.7871 74.029 56.6915 75.7211 58.0196 77.0492C59.3477 78.3773 61.0398 79.2818 62.8819 79.6482C64.724 80.0146 66.6335 79.8265 68.3687 79.1078C70.1039 78.389 71.5871 77.1718 72.6306 75.6102C73.674 74.0485 74.231 72.2124 74.231 70.3342C74.2282 67.8165 73.2268 65.4027 71.4465 63.6223C69.6662 61.842 67.2523 60.8406 64.7346 60.8378ZM64.7346 73.5236C64.1038 73.5236 63.4871 73.3366 62.9627 72.9861C62.4382 72.6357 62.0294 72.1375 61.788 71.5548C61.5466 70.972 61.4834 70.3307 61.6065 69.712C61.7295 69.0933 62.0333 68.525 62.4793 68.079C62.9254 67.633 63.4937 67.3292 64.1124 67.2061C64.731 67.0831 65.3723 67.1462 65.9551 67.3876C66.5379 67.629 67.036 68.0378 67.3864 68.5623C67.7369 69.0868 67.9239 69.7034 67.9239 70.3342C67.924 70.7531 67.8416 71.1679 67.6814 71.5549C67.5211 71.9419 67.2862 72.2935 66.99 72.5897C66.6938 72.8859 66.3422 73.1208 65.9552 73.281C65.5682 73.4413 65.1534 73.5237 64.7346 73.5236Z" fill="#DB3559"/>
<path d="M56.8829 11.2682C52.2851 11.2682 48.3751 15.1417 48.3751 20.451C48.3751 25.8714 53.2083 29.8855 56.0785 32.2797C56.3042 32.4687 56.5892 32.5723 56.8836 32.5723C57.178 32.5723 57.463 32.4687 57.6887 32.2797C60.5546 29.8827 65.3907 25.8749 65.3907 20.451C65.3907 15.1417 61.4771 11.2682 56.8829 11.2682ZM56.8997 24.4813C56.0463 24.4815 55.2119 24.2285 54.5022 23.7544C53.7925 23.2804 53.2393 22.6065 52.9126 21.818C52.5859 21.0296 52.5004 20.1619 52.6668 19.3248C52.8332 18.4877 53.2441 17.7188 53.8476 17.1153C54.451 16.5117 55.2199 16.1007 56.057 15.9341C56.894 15.7676 57.7617 15.853 58.5502 16.1796C59.3387 16.5061 60.0127 17.0592 60.4869 17.7688C60.961 18.4785 61.2141 19.3128 61.2141 20.1662C61.2141 20.7331 61.1024 21.2945 60.8854 21.8182C60.6684 22.3419 60.3503 22.8177 59.9493 23.2185C59.5483 23.6192 59.0723 23.937 58.5484 24.1537C58.0245 24.3703 57.4631 24.4817 56.8962 24.4813H56.8997Z" fill="#DB3559"/>
<path d="M78.2923 59.1553C78.2223 58.9971 78.1856 58.8262 78.1845 58.6532C78.1834 58.4802 78.2179 58.3089 78.2859 58.1498C78.9068 56.7302 79.4953 54.7474 78.1369 52.8061C77.5571 51.8688 76.6868 51.1467 75.6586 50.7499C74.6304 50.3531 73.5007 50.3033 72.4416 50.6081C72.4184 50.6151 71.6681 50.9217 71.292 51.075C71.2271 51.1016 71.1569 51.1128 71.087 51.1076C71.0171 51.1025 70.9494 51.0812 70.8891 51.0455C70.4377 50.7818 69.9666 50.5259 69.4695 50.2798C69.4111 50.2524 69.359 50.2133 69.3166 50.1648C69.2741 50.1163 69.2422 50.0595 69.2228 49.9981C69.2035 49.9366 69.1971 49.8718 69.2041 49.8077C69.2111 49.7436 69.2313 49.6817 69.2634 49.6259C70.2816 47.9278 70.8806 45.5695 69.0722 43.5909C68.5395 43.0285 67.8955 42.5833 67.1813 42.2834C66.4671 41.9835 65.6982 41.8357 64.9238 41.8493L47.3203 42.4399C45.3326 42.4399 43.5234 44.415 43.5234 46.5841C43.4978 47.504 43.7177 48.4141 44.1604 49.2209C44.6032 50.0276 45.2529 50.7018 46.0427 51.1741C46.553 51.422 46.9783 51.8158 47.2648 52.3055C48.1905 54.043 48.6574 55.9881 48.6211 57.9565C48.6172 59.204 48.1194 60.3992 47.2365 61.2806C46.3537 62.162 45.1577 62.6578 43.9102 62.6597H38.153C37.5868 62.6657 37.0293 62.5213 36.5371 62.2414C36.045 61.9615 35.636 61.556 35.3517 61.0664C34.1452 58.9184 32.9941 54.6321 35.1717 47.7921C36.367 44.0409 38.1164 37.575 37.6376 33.1622L39.1022 31.9612C39.269 32.4048 39.5255 32.8091 39.8559 33.1488C40.1862 33.4885 40.5831 33.7564 41.0217 33.9356C41.2602 34.0179 41.5106 34.0602 41.7628 34.0608C42.3282 34.052 42.8729 33.8466 43.3034 33.48C44.7441 32.31 45.3853 29.5495 44.7954 27.0583C44.4129 25.4412 43.5734 24.3021 42.4927 23.9337C42.1056 23.8026 41.6909 23.7757 41.2901 23.8557C40.8894 23.9357 40.5167 24.1197 40.2096 24.3893C38.982 25.3856 38.3435 27.5365 38.5425 29.6915L37.0969 30.8777C36.58 29.4934 35.6577 28.2972 34.4503 27.4454C33.243 26.5935 31.8068 26.1256 30.3293 26.1028C30.2899 26.1028 27.9162 26.119 27.3466 26.2139C27.0261 26.2723 26.7189 26.3888 26.4403 26.5577H26.4361C24.9145 27.4528 23.7895 29.8329 23.7895 32.4394C23.7932 33.4715 24.0167 34.491 24.4452 35.4299C24.8737 36.3689 25.4972 37.2059 26.2744 37.8851C26.6083 38.1227 26.9692 38.32 27.3495 38.4729C27.5008 38.5268 27.658 38.563 27.8177 38.5805C28.8537 38.6909 29.9006 38.6358 30.9192 38.4173C30.957 38.4087 30.9964 38.4112 31.0327 38.4246C31.069 38.4379 31.1007 38.4615 31.1238 38.4926C31.1509 38.5238 31.1682 38.5623 31.1736 38.6033C31.179 38.6443 31.1722 38.686 31.1541 38.7232C29.4363 42.6094 26.2617 50.7199 24.4877 55.3964C24.3784 55.6867 24.1762 55.9326 23.9126 56.0961C23.649 56.2595 23.3387 56.3311 23.0302 56.2999C20.7182 56.0592 18.3832 56.4149 16.2478 57.3332C14.1124 58.2514 12.248 59.7016 10.8323 61.5452C10.4462 62.0342 10.2609 62.652 10.3141 63.2728C10.3614 63.7574 10.5571 64.2156 10.8747 64.5848C11.1922 64.9539 11.616 65.216 12.0881 65.3351C12.1217 65.3439 12.1558 65.3509 12.1901 65.3562L29.8456 68.014C30.5662 68.1104 31.2587 68.3561 31.879 68.7354C32.5324 69.15 33.2905 69.3695 34.0643 69.3682H76.9922C77.686 69.3706 78.3537 69.1041 78.8552 68.6246C79.3567 68.1452 79.6529 67.4901 79.6816 66.7969C79.7885 64.1783 79.314 61.5686 78.2923 59.1553ZM41.5385 26.0269C41.5971 25.9669 41.6746 25.9292 41.7579 25.92C41.8943 25.9242 42.0349 26.0606 42.1692 26.2308C42.4512 26.6227 42.6465 27.0702 42.7423 27.5435C43.0284 28.7531 42.9273 30.0219 42.4533 31.1709C42.3127 31.4655 42.0054 31.938 41.7016 31.938C41.4478 31.938 41.0154 31.3594 40.77 30.3208C40.3524 28.5616 40.8312 26.6013 41.5385 26.0269ZM27.5892 36.0302C27.5801 36.049 27.5668 36.0653 27.5502 36.078C27.5337 36.0907 27.5144 36.0994 27.4939 36.1033C27.4735 36.1073 27.4524 36.1064 27.4323 36.1008C27.4122 36.0952 27.3937 36.085 27.3783 36.071C26.4383 35.0957 25.9079 33.7973 25.8961 32.4429C25.8386 31.0894 26.2726 29.7607 27.1181 28.7023C27.1323 28.6869 27.15 28.6753 27.1697 28.6683C27.1893 28.6612 27.2104 28.659 27.2311 28.6619C27.2518 28.6647 27.2715 28.6724 27.2885 28.6845C27.3056 28.6965 27.3195 28.7125 27.3291 28.7311C27.9385 29.9236 28.2789 31.2353 28.3261 32.5737C28.3407 33.7663 28.089 34.9472 27.5892 36.0302ZM66.8292 49.4093H47.3379C46.8457 49.4093 45.6328 48.4172 45.6328 46.5834C45.6331 46.0947 45.8064 45.6218 46.1219 45.2486C46.4375 44.8754 46.875 44.6259 47.3569 44.5444L64.9568 43.9558C65.4329 43.9456 65.9059 44.034 66.3462 44.2155C66.7864 44.397 67.1843 44.6677 67.5148 45.0105C68.94 46.5743 67.4845 48.633 66.8292 49.4093ZM76.7123 56.3069C75.7293 54.9006 74.5401 53.6503 73.1848 52.598C73.8034 52.4659 74.4479 52.5321 75.0268 52.7872C75.6056 53.0423 76.0894 53.4733 76.4093 54.019C76.6364 54.3496 76.7821 54.7292 76.8345 55.1268C76.8869 55.5244 76.8446 55.9288 76.7109 56.3069H76.7123Z" fill="#DB3559"/>
</svg>
